<svg width="24" height="24" viewBox="0 0 24 24" fill="none" xmlns="http://www.w3.org/2000/svg">
<g id="Frame">
<path id="Vector (Stroke)" fill-rule="evenodd" clip-rule="evenodd" d="M11.116 3.61599C12.2787 2.45326 13.8557 1.80005 15.5 1.80005H18.5C19.1628 1.80005 19.7 2.33731 19.7 3.00005V7.00005C19.7 7.66279 19.1628 8.20005 18.5 8.20005H15.7V8.80005H18.5C18.8696 8.80005 19.2185 8.97029 19.4459 9.26155C19.6733 9.55281 19.7538 9.9326 19.6642 10.2911L18.6642 14.2911C18.5307 14.8253 18.0507 15.2 17.5001 15.2H15.7V21C15.7 21.6628 15.1628 22.2 14.5 22.2H10.5C9.83731 22.2 9.30005 21.6628 9.30005 21V15.2H7.50005C6.83731 15.2 6.30005 14.6628 6.30005 14V10C6.30005 9.33731 6.83731 8.80005 7.50005 8.80005H9.30005V8.00005C9.30005 6.35571 9.95326 4.77871 11.116 3.61599ZM15.5 4.20005C14.4922 4.20005 13.5257 4.6004 12.813 5.31304C12.1004 6.02568 11.7 6.99223 11.7 8.00005V10C11.7 10.6628 11.1628 11.2 10.5 11.2H8.70005V12.8H10.5C11.1628 12.8 11.7 13.3373 11.7 14V19.8H13.3V14C13.3 13.3373 13.8373 12.8 14.5 12.8H16.5631L16.9631 11.2H14.5C13.8373 11.2 13.3 10.6628 13.3 10V8.00005C13.3 7.41657 13.5318 6.85699 13.9444 6.44441C14.357 6.03183 14.9166 5.80005 15.5 5.80005H17.3V4.20005H15.5Z" fill="#A3A3A3"/>
</g>
</svg>
