<svg width="24" height="24" viewBox="0 0 24 24" fill="none" xmlns="http://www.w3.org/2000/svg">
<g id="Frame" clip-path="url(#clip0_356_681)">
<path id="Vector" d="M16.5 3C17.8261 3 19.0979 3.52678 20.0355 4.46447C20.9732 5.40215 21.5 6.67392 21.5 8V16C21.5 17.3261 20.9732 18.5979 20.0355 19.5355C19.0979 20.4732 17.8261 21 16.5 21H8.5C7.17392 21 5.90215 20.4732 4.96447 19.5355C4.02678 18.5979 3.5 17.3261 3.5 16V8C3.5 6.67392 4.02678 5.40215 4.96447 4.46447C5.90215 3.52678 7.17392 3 8.5 3H16.5ZM12.5 8C11.4738 8 10.4868 8.39443 9.74319 9.10172C8.9996 9.80901 8.55631 10.775 8.505 11.8L8.5 12C8.5 12.7911 8.7346 13.5645 9.17412 14.2223C9.61365 14.8801 10.2384 15.3928 10.9693 15.6955C11.7002 15.9983 12.5044 16.0775 13.2804 15.9231C14.0563 15.7688 14.769 15.3878 15.3284 14.8284C15.8878 14.269 16.2688 13.5563 16.4231 12.7804C16.5775 12.0044 16.4983 11.2002 16.1955 10.4693C15.8928 9.73836 15.3801 9.11365 14.7223 8.67412C14.0645 8.2346 13.2911 8 12.5 8ZM17 6.5C16.7551 6.50003 16.5187 6.58996 16.3356 6.75272C16.1526 6.91547 16.0357 7.13975 16.007 7.383L16 7.51C16.0003 7.76488 16.0979 8.01003 16.2728 8.19537C16.4478 8.3807 16.687 8.49223 16.9414 8.50717C17.1958 8.52211 17.4464 8.43933 17.6418 8.27573C17.8373 8.11214 17.9629 7.8801 17.993 7.627L18 7.5C18 7.23478 17.8946 6.98043 17.7071 6.79289C17.5196 6.60536 17.2652 6.5 17 6.5Z" fill="#A3A3A3"/>
</g>
<defs>
<clipPath id="clip0_356_681">
<rect width="24" height="24" fill="white" transform="translate(0.5)"/>
</clipPath>
</defs>
</svg>
