<svg xmlns="http://www.w3.org/2000/svg"
     xmlns:xlink="http://www.w3.org/1999/xlink" viewBox="0 0 24 24">
    <path d="M 17.631 7.136 C 17.514 7.077 17.401 7.012 17.29 6.941 C 16.97 6.733 16.676 6.488 16.415 6.211 C 15.763 5.478 15.519 4.734 15.429 4.213 L 15.433 4.213 C 15.358 3.78 15.389 3.501 15.394 3.501 L 12.421 3.501 L 12.421 14.79 C 12.421 14.942 12.421 15.092 12.415 15.24 C 12.415 15.258 12.413 15.275 12.412 15.295 C 12.412 15.303 12.412 15.311 12.41 15.32 L 12.41 15.326 C 12.346 16.149 11.87 16.886 11.14 17.294 C 10.765 17.503 10.342 17.613 9.91 17.613 C 8.526 17.613 7.403 16.503 7.403 15.134 C 7.403 13.764 8.526 12.655 9.91 12.655 C 10.173 12.654 10.433 12.695 10.682 12.775 L 10.686 9.802 C 9.156 9.608 7.614 10.051 6.432 11.024 C 5.919 11.462 5.489 11.983 5.159 12.566 C 5.033 12.779 4.56 13.632 4.503 15.018 C 4.467 15.805 4.707 16.62 4.822 16.956 L 4.822 16.964 C 4.894 17.162 5.173 17.839 5.629 18.409 C 5.996 18.867 6.43 19.269 6.916 19.602 L 6.916 19.595 L 6.923 19.602 C 8.362 20.563 9.958 20.5 9.958 20.5 C 10.234 20.489 11.159 20.5 12.21 20.011 C 13.375 19.468 14.038 18.661 14.038 18.661 C 14.462 18.178 14.799 17.628 15.035 17.034 C 15.304 16.34 15.394 15.507 15.394 15.174 L 15.394 9.184 C 15.43 9.206 15.91 9.518 15.91 9.518 C 15.91 9.518 16.602 9.953 17.681 10.237 C 18.456 10.439 19.499 10.481 19.499 10.481 L 19.499 7.583 C 19.133 7.622 18.391 7.508 17.631 7.136 Z"
          fill="#A3A3A3"></path>
</svg>
