<svg width="24" height="24" viewBox="0 0 24 24" fill="none" xmlns="http://www.w3.org/2000/svg">
<g id="Frame" clip-path="url(#clip0_356_740)">
<path id="Vector" d="M18.5 3C19.1566 3 19.8068 3.12933 20.4134 3.3806C21.02 3.63188 21.5712 4.00017 22.0355 4.46447C22.4998 4.92876 22.8681 5.47995 23.1194 6.08658C23.3707 6.69321 23.5 7.34339 23.5 8V16C23.5 16.6566 23.3707 17.3068 23.1194 17.9134C22.8681 18.52 22.4998 19.0712 22.0355 19.5355C21.5712 19.9998 21.02 20.3681 20.4134 20.6194C19.8068 20.8707 19.1566 21 18.5 21H6.5C5.84339 21 5.19321 20.8707 4.58658 20.6194C3.97995 20.3681 3.42876 19.9998 2.96447 19.5355C2.02678 18.5979 1.5 17.3261 1.5 16V8C1.5 6.67392 2.02678 5.40215 2.96447 4.46447C3.90215 3.52678 5.17392 3 6.5 3H18.5ZM9.5 9V15C9.50014 15.1768 9.54718 15.3505 9.63631 15.5032C9.72545 15.656 9.85349 15.7823 10.0074 15.8695C10.1613 15.9566 10.3355 16.0013 10.5124 15.9991C10.6892 15.9969 10.8623 15.9479 11.014 15.857L16.014 12.857C16.1619 12.7681 16.2842 12.6425 16.3691 12.4923C16.4541 12.3421 16.4987 12.1725 16.4987 12C16.4987 11.8275 16.4541 11.6579 16.3691 11.5077C16.2842 11.3575 16.1619 11.2319 16.014 11.143L11.014 8.143C10.8623 8.0521 10.6892 8.00306 10.5124 8.00087C10.3355 7.99868 10.1613 8.04342 10.0074 8.13054C9.85349 8.21765 9.72545 8.34402 9.63631 8.49677C9.54718 8.64951 9.50014 8.82315 9.5 9Z" fill="#A3A3A3"/>
</g>
<defs>
<clipPath id="clip0_356_740">
<rect width="24" height="24" fill="white" transform="translate(0.5)"/>
</clipPath>
</defs>
</svg>
