<svg xmlns="http://www.w3.org/2000/svg" width="492" height="214" fill="none"><path fill="#702B8F" d="M245.31 140.861v-36.6H143.84v36.6h16.61v-21.37h25.44v73.62h-14.06v15.23h45.49v-15.23h-14.06v-73.62h25.37v21.37h16.68Zm29.07 20.82 14.82-38.46h1.48l14.82 38.46h-31.13.01Zm61.78 31.43-35.15-88.85H257.7v15.23h16.66l-29.19 73.62h-8.82v15.23h44.67v-15.23h-18.75l6.67-17.3h42.02l6.67 17.3h-18.47v15.23h45.77v-15.23h-8.77Zm-212.721-73.62h12.5v-15.23h-30.45l-34.73 58.16-32.4-58.16h-32.4v15.23h13.62v73.62H5.959v15.23h44.37v-15.23h-13.38v-59.04l26.91 47.47h13.4l28.75-48.53h.06v60.1h-14.11v15.23h44.37v-15.23h-12.89v-73.62ZM14.23 48.56H6.09v-4.38h21.46v4.38h-8.22v22.51h-5.1V48.56Zm33.05 17.471c1.19-.74 2.11-1.82 2.75-3.24.65-1.42.97-3.11.97-5.08v-.24c0-1.92-.32-3.58-.95-5-.63-1.42-1.54-2.5-2.71-3.24-1.17-.74-2.59-1.11-4.23-1.11-1.64 0-3.03.37-4.23 1.11-1.2.74-2.12 1.82-2.75 3.22-.64 1.4-.95 3.09-.95 5.06v.16c0 1.97.31 3.66.93 5.08.62 1.42 1.52 2.5 2.69 3.26 1.17.76 2.58 1.13 4.23 1.13 1.65 0 3.06-.37 4.25-1.11Zm-11.22 3.81c-2-1.17-3.54-2.82-4.64-4.94-1.09-2.12-1.64-4.54-1.64-7.27 0-2.73.56-5.15 1.68-7.27 1.12-2.12 2.69-3.76 4.72-4.94 2.03-1.18 4.36-1.76 7.01-1.76 2.65 0 4.89.59 6.88 1.76 2 1.17 3.54 2.82 4.64 4.94 1.09 2.12 1.64 4.54 1.64 7.27 0 2.73-.55 5.15-1.66 7.27-1.11 2.12-2.68 3.77-4.72 4.94-2.04 1.17-4.38 1.76-7.03 1.76-2.65 0-4.89-.59-6.88-1.76ZM61.17 44.18H67l11.9 18.35V44.18h4.86v26.93h-4.9L66.03 51.39v19.68h-4.86V44.18Zm33.31 25.741c-1.85-1.12-3.28-2.71-4.29-4.76-1.01-2.05-1.52-4.43-1.52-7.13 0-2.92.55-5.45 1.64-7.61 1.09-2.16 2.61-3.83 4.56-5 1.94-1.17 4.18-1.76 6.72-1.76 3.21 0 5.83.82 7.86 2.45 2.02 1.63 3.27 3.99 3.73 7.07h-5.3c-.3-1.67-.98-2.92-2.05-3.73-1.07-.81-2.49-1.22-4.27-1.22-1.51 0-2.84.39-3.97 1.15-1.13.77-2.02 1.88-2.67 3.32-.65 1.44-.97 3.17-.97 5.16v.36c0 1.86.3 3.47.91 4.82.61 1.35 1.49 2.37 2.65 3.08 1.16.7 2.52 1.05 4.09 1.05 1.21 0 2.31-.24 3.3-.71a5.44 5.44 0 0 0 2.33-2.07c.57-.91.85-1.98.85-3.22v-.89l2.15 1.58h-8.14v-4.21h11.22v13.4h-4.54v-3.69a8.067 8.067 0 0 1-3.2 3.12c-1.35.73-2.89 1.1-4.62 1.1-2.46 0-4.61-.56-6.46-1.68m48.679-4.111c1.24-.66 2.17-1.66 2.79-3 .62-1.34.93-3 .93-5v-.24c0-2.08-.29-3.79-.87-5.12-.58-1.34-1.47-2.33-2.67-2.98-1.2-.65-2.73-.97-4.6-.97h-4.58v7.17h5.79v3.89h-5.79v7.25h4.33c1.86 0 3.42-.33 4.66-.99m-14.21-6.26h-2.75v-3.89h2.75V44.19h9.88c4.29 0 7.59 1.15 9.9 3.44 2.31 2.29 3.46 5.66 3.46 10.08s-1.2 7.63-3.59 9.92c-2.39 2.3-5.77 3.44-10.14 3.44h-9.52V59.53l.01.01Zm35.31 14.24h5.22v4.86h-5.22v-4.86Zm6.03-14.17-3.52-9.96-3.68 9.96h7.21-.01Zm-6.23-15.43h5.87l9.76 26.89h-5.43l-2.55-7.21h-10.04l-2.67 7.21h-5.06l10.12-26.89Zm24.68 0h-5.1v26.89h5.1V44.18Zm15.431 0h5.11V66.7h12.14v4.37h-17.25V44.18Zm25.52 14.74-9.68-14.74h5.79l6.6 10.33 6.6-10.33h5.55l-9.76 14.78v12.11h-5.1V58.92ZM41.238 35.111h3.89l4.21 5.79h-3.28l-2.99-3.2-2.88 3.12-3.2.08 4.25-5.79Zm8.22.199c.16-.3.42-.57.77-.81l.12-.08c.11-.05.18-.1.22-.14.04-.04.1-.09.18-.14.41-.24.7-.45.89-.63.19-.17.28-.38.28-.63 0-.27-.14-.49-.42-.67-.28-.18-.72-.26-1.32-.26-.62 0-1.22.1-1.8.3-.58.2-1.1.53-1.56.99l-1.5-1.78c.35-.49 1.03-.95 2.05-1.4 1.01-.44 2.14-.67 3.38-.67 1.24 0 2.39.27 3.3.81.9.54 1.36 1.26 1.36 2.15 0 .59-.17 1.06-.51 1.4-.34.34-.84.72-1.52 1.15-.22.16-.44.32-.69.49-.27.19-.47.38-.59.57-.12.19-.18.43-.18.73v.12h-2.71v-.45c0-.41.08-.75.24-1.05m184.891-.399h5.59v.4l-6.6 5.55h-2.63l3.64-5.95Z"/><path fill="#FAAD40" d="M455.929 88.4c-4.09 1.31-8.55 1.2-12.49-.39l1.4-4.32 4.14-12.74c-2.62-1.9-11.73-8.52-14.19-10.31 3.15-4.98 9.4-8.4 15.43-8.31 20.83.31 25.66 29.16 5.71 36.07Zm-15.6 48c-12.27 4.15-25.22-6.04-24.15-18.91h17.67c1-3.07 4.44-13.67 5.38-16.56 17.77 4.72 18.63 29.62 1.1 35.47Zm-50.47 0c-17.39 5.51-31.4-14.63-20.23-29.02 2.38-3.05 5.91-5.46 9.9-6.45.91 2.81 4.4 13.55 5.38 16.56h17.67c.6 8.41-4.6 16.27-12.73 18.91m-38.89-59.87c-6.13-20.65 20.69-33.53 33-15.89l-3.67 2.67-10.51 7.64 4.15 12.76 1.4 4.31c-.35.14-.71.27-1.07.39-9.46 3.15-20.17-2.11-23.29-11.87m45.35 25.26-8.07-24.84c5.54-4.03 15.6-11.33 21.13-15.36 5.54 4.02 15.59 11.33 21.13 15.36l-8.07 24.84h-26.12Zm-5.42-60.63c0-10.21 8.28-18.49 18.48-18.49 15.42-.08 24.06 18.13 14.45 30.01-2.4-1.75-11.87-8.62-14.45-10.5-2.64 1.92-11.97 8.7-14.45 10.5-2.53-3.14-4.03-7.24-4.03-11.52Zm94.1 18.36c-5.31-16.72-22.29-27.38-39.64-24.95-8.04-39.75-63.88-39.79-71.94 0-5.39-.73-10.97-.23-16.16 1.47-30.49 9.82-34.11 52.06-6.06 67-11.72 23.61 6.21 52.69 32.96 52.37 9.21.08 18.77-3.81 25.22-10.1 27.6 25.75 71.3-1.44 60.03-37.79-.51-1.56-1.11-3.06-1.81-4.51 15.22-7.88 23.04-27.2 17.4-43.48"/></svg>