<svg width="24" height="24" viewBox="0 0 24 24" fill="none" xmlns="http://www.w3.org/2000/svg">
<g id="Frame" clip-path="url(#clip0_356_727)">
<path id="Vector" d="M17.5 2C18.8261 2 20.0979 2.52678 21.0355 3.46447C21.9732 4.40215 22.5 5.67392 22.5 7V17C22.5 18.3261 21.9732 19.5979 21.0355 20.5355C20.0979 21.4732 18.8261 22 17.5 22H7.5C6.17392 22 4.90215 21.4732 3.96447 20.5355C3.02678 19.5979 2.5 18.3261 2.5 17V7C2.5 5.67392 3.02678 4.40215 3.96447 3.46447C4.90215 2.52678 6.17392 2 7.5 2H17.5ZM8.5 10C8.23478 10 7.98043 10.1054 7.79289 10.2929C7.60536 10.4804 7.5 10.7348 7.5 11V16C7.5 16.2652 7.60536 16.5196 7.79289 16.7071C7.98043 16.8946 8.23478 17 8.5 17C8.76522 17 9.01957 16.8946 9.20711 16.7071C9.39464 16.5196 9.5 16.2652 9.5 16V11C9.5 10.7348 9.39464 10.4804 9.20711 10.2929C9.01957 10.1054 8.76522 10 8.5 10ZM14.5 10C14.0988 9.99978 13.7016 10.08 13.332 10.236L13.207 10.293C13.0671 10.1532 12.889 10.058 12.695 10.0194C12.5011 9.98085 12.3 10.0007 12.1173 10.0763C11.9346 10.152 11.7785 10.2801 11.6686 10.4445C11.5587 10.609 11.5 10.8022 11.5 11V16C11.5 16.2652 11.6054 16.5196 11.7929 16.7071C11.9804 16.8946 12.2348 17 12.5 17C12.7652 17 13.0196 16.8946 13.2071 16.7071C13.3946 16.5196 13.5 16.2652 13.5 16V13C13.5 12.7348 13.6054 12.4804 13.7929 12.2929C13.9804 12.1054 14.2348 12 14.5 12C14.7652 12 15.0196 12.1054 15.2071 12.2929C15.3946 12.4804 15.5 12.7348 15.5 13V16C15.5 16.2652 15.6054 16.5196 15.7929 16.7071C15.9804 16.8946 16.2348 17 16.5 17C16.7652 17 17.0196 16.8946 17.2071 16.7071C17.3946 16.5196 17.5 16.2652 17.5 16V13C17.5 12.2044 17.1839 11.4413 16.6213 10.8787C16.0587 10.3161 15.2956 10 14.5 10ZM8.5 7C8.25507 7.00003 8.01866 7.08996 7.83563 7.25272C7.65259 7.41547 7.53566 7.63975 7.507 7.883L7.5 8.01C7.50028 8.26488 7.59788 8.51003 7.77285 8.69537C7.94782 8.8807 8.18695 8.99223 8.44139 9.00717C8.69584 9.02211 8.94638 8.93933 9.14183 8.77573C9.33729 8.61214 9.4629 8.3801 9.493 8.127L9.5 8C9.5 7.73478 9.39464 7.48043 9.20711 7.29289C9.01957 7.10536 8.76522 7 8.5 7Z" fill="#A3A3A3"/>
</g>
<defs>
<clipPath id="clip0_356_727">
<rect width="24" height="24" fill="white" transform="translate(0.5)"/>
</clipPath>
</defs>
</svg>
